# xmcd
#
# Track frame offsets:
#	150
#	20482
#	60137
#	68577
#	79190
#	123432
#	134002
#	166270
#	197792
#	227930
#	248387
#	263470
#
# Disc length: 4159 seconds
#
# Revision: 0
# Processed by: cddbd v1.5.1PL2 Copyright (c) Steve Scherf et al.
# Submitted via: audiograbber 1.83.01
#
DISCID=95103d0c
DTITLE=HITECH - HI DISC 1
DYEAR=1900
DGENRE=
TTITLE0=The Vikings - WILLS
TTITLE1=Festival day in Seville - ISSAC ALBENIZ
TTITLE2=Sanctus - JOHN RUTTER
TTITLE3=Behold man - RON NELSON
TTITLE4=All blues - MILES DAVIS
TTITLE5=Rag - MORTON GOULD
TTITLE6=Autumm leaves - KOSMA, MERCER
TTITLE7=Tropic affair - J. SHARP
TTITLE8=Stormy weather - H. ARLEN, T. KOEHLER
TTITLE9=Smile Elis - VAN MANAKAS
TTITLE10=Doin the voom voom - DUKE ELLINGTON
TTITLE11=Beckus the dandipratt - MALCOLM ARNOLD
EXTD=
EXTT0=
EXTT1=
EXTT2=
EXTT3=
EXTT4=
EXTT5=
EXTT6=
EXTT7=
EXTT8=
EXTT9=
EXTT10=
EXTT11=
PLAYORDER=
